<svg width="16" height="16" viewBox="0 0 16 16" fill="none" xmlns="http://www.w3.org/2000/svg">
<path d="M8 0C3.58171 0 0 3.58171 0 8C0 12.4183 3.58171 16 8 16C12.4183 16 16 12.4183 16 8C16 3.58171 12.4183 0 8 0ZM8 1.54839C11.5655 1.54839 14.4516 4.4339 14.4516 8C14.4516 11.5655 11.5661 14.4516 8 14.4516C4.43445 14.4516 1.54839 11.5661 1.54839 8C1.54839 4.43445 4.4339 1.54839 8 1.54839ZM12.5227 5.75055L11.7957 5.01771C11.6452 4.86594 11.4001 4.86494 11.2483 5.01552L6.68858 9.53861L4.75981 7.59419C4.60926 7.44242 4.36416 7.44142 4.21239 7.59197L3.47952 8.31894C3.32774 8.46948 3.32674 8.71458 3.47732 8.86639L6.40574 11.8185C6.55629 11.9703 6.80139 11.9713 6.95316 11.8207L12.5205 6.298C12.6723 6.14742 12.6733 5.90232 12.5227 5.75055Z" fill="#22C55D"/>
</svg>
