<svg width="21" height="21" viewBox="0 0 21 21" fill="none" xmlns="http://www.w3.org/2000/svg">
<path fill-rule="evenodd" clip-rule="evenodd" d="M9.45 0C11.1897 0 12.6 1.4103 12.6 3.15L12.6001 4.37921C12.9285 4.26315 13.2819 4.2 13.65 4.2H17.85C19.5897 4.2 21 5.6103 21 7.35V17.85C21 19.5897 19.5897 21 17.85 21H3.15C1.4103 21 0 19.5897 0 17.85V3.15C0 1.4103 1.4103 0 3.15 0H9.45ZM9.45 2.1H3.15C2.5701 2.1 2.1 2.5701 2.1 3.15V17.85C2.1 18.4299 2.5701 18.9 3.15 18.9H10.5V3.15C10.5 2.5701 10.0299 2.1 9.45 2.1ZM17.85 6.3H13.65C13.0701 6.3 12.6 6.7701 12.6 7.35V18.9H17.85C18.4299 18.9 18.9 18.4299 18.9 17.85V7.35C18.9 6.7701 18.4299 6.3 17.85 6.3ZM7.35 12.6C7.9299 12.6 8.4 13.0701 8.4 13.65C8.4 14.2299 7.9299 14.7 7.35 14.7H5.25C4.6701 14.7 4.2 14.2299 4.2 13.65C4.2 13.0701 4.6701 12.6 5.25 12.6H7.35ZM16.8 12.6C17.3799 12.6 17.85 13.0701 17.85 13.65C17.85 14.2299 17.3799 14.7 16.8 14.7H14.7C14.1201 14.7 13.65 14.2299 13.65 13.65C13.65 13.0701 14.1201 12.6 14.7 12.6H16.8ZM7.35 8.4C7.9299 8.4 8.4 8.8701 8.4 9.45C8.4 10.0299 7.9299 10.5 7.35 10.5H5.25C4.6701 10.5 4.2 10.0299 4.2 9.45C4.2 8.8701 4.6701 8.4 5.25 8.4H7.35ZM16.8 8.4C17.3799 8.4 17.85 8.8701 17.85 9.45C17.85 10.0299 17.3799 10.5 16.8 10.5H14.7C14.1201 10.5 13.65 10.0299 13.65 9.45C13.65 8.8701 14.1201 8.4 14.7 8.4H16.8ZM7.35 4.2C7.9299 4.2 8.4 4.6701 8.4 5.25C8.4 5.8299 7.9299 6.3 7.35 6.3H5.25C4.6701 6.3 4.2 5.8299 4.2 5.25C4.2 4.6701 4.6701 4.2 5.25 4.2H7.35Z" fill="#015FFE"/>
</svg>
